<mxfile host="65bd71144e">
    <diagram id="NibRAk3RbFhO-fpTsaTj" name="Page-1">
        <mxGraphModel dx="1747" dy="433" grid="1" gridSize="10" guides="1" tooltips="1" connect="1" arrows="1" fold="1" page="1" pageScale="1" pageWidth="827" pageHeight="1169" math="0" shadow="0">
            <root>
                <mxCell id="0"/>
                <mxCell id="1" parent="0"/>
                <mxCell id="5" value="" style="edgeStyle=none;html=1;" parent="1" source="2" target="4" edge="1">
                    <mxGeometry relative="1" as="geometry"/>
                </mxCell>
                <mxCell id="2" value="start" style="ellipse;whiteSpace=wrap;html=1;" parent="1" vertex="1">
                    <mxGeometry x="277" y="90" width="250" height="80" as="geometry"/>
                </mxCell>
                <mxCell id="3" value="&lt;p style=&quot;box-sizing: border-box ; margin: 0px ; color: rgb(44 , 45 , 48) ; font-family: &amp;#34;roboto&amp;#34; , &amp;#34;san francisco&amp;#34; , &amp;#34;helvetica neue&amp;#34; , &amp;#34;helvetica&amp;#34; , &amp;#34;arial&amp;#34; ; font-size: 15px ; background-color: rgb(255 , 255 , 255)&quot;&gt;&lt;span style=&quot;box-sizing: border-box ; font-weight: 700&quot;&gt;Задача 13:&lt;/span&gt;&amp;nbsp;Напишите метод, который выводит третью цифру заданного числа или сообщает, что третьей цифры нет.&lt;/p&gt;&lt;p style=&quot;box-sizing: border-box ; margin: 0px ; color: rgb(44 , 45 , 48) ; font-family: &amp;#34;roboto&amp;#34; , &amp;#34;san francisco&amp;#34; , &amp;#34;helvetica neue&amp;#34; , &amp;#34;helvetica&amp;#34; , &amp;#34;arial&amp;#34; ; font-size: 15px ; background-color: rgb(255 , 255 , 255)&quot;&gt;645 -&amp;gt; 5&lt;/p&gt;&lt;p style=&quot;box-sizing: border-box ; margin: 0px ; color: rgb(44 , 45 , 48) ; font-family: &amp;#34;roboto&amp;#34; , &amp;#34;san francisco&amp;#34; , &amp;#34;helvetica neue&amp;#34; , &amp;#34;helvetica&amp;#34; , &amp;#34;arial&amp;#34; ; font-size: 15px ; background-color: rgb(255 , 255 , 255)&quot;&gt;78 -&amp;gt; третьей цифры нет&lt;/p&gt;&lt;p style=&quot;box-sizing: border-box ; margin: 0px ; color: rgb(44 , 45 , 48) ; font-family: &amp;#34;roboto&amp;#34; , &amp;#34;san francisco&amp;#34; , &amp;#34;helvetica neue&amp;#34; , &amp;#34;helvetica&amp;#34; , &amp;#34;arial&amp;#34; ; font-size: 15px ; background-color: rgb(255 , 255 , 255)&quot;&gt;32679 -&amp;gt; 6&lt;/p&gt;" style="text;html=1;align=center;verticalAlign=middle;resizable=0;points=[];autosize=1;strokeColor=none;fillColor=none;" parent="1" vertex="1">
                    <mxGeometry x="-23" y="10" width="850" height="60" as="geometry"/>
                </mxCell>
                <mxCell id="7" value="" style="edgeStyle=none;html=1;" parent="1" source="4" edge="1">
                    <mxGeometry relative="1" as="geometry">
                        <mxPoint x="402" y="320" as="targetPoint"/>
                    </mxGeometry>
                </mxCell>
                <mxCell id="4" value="N" style="shape=parallelogram;perimeter=parallelogramPerimeter;whiteSpace=wrap;html=1;fixedSize=1;" parent="1" vertex="1">
                    <mxGeometry x="258" y="210" width="288" height="60" as="geometry"/>
                </mxCell>
                <mxCell id="10" value="" style="edgeStyle=none;html=1;" parent="1" source="8" target="9" edge="1">
                    <mxGeometry relative="1" as="geometry"/>
                </mxCell>
                <mxCell id="11" value="yes" style="edgeLabel;html=1;align=center;verticalAlign=middle;resizable=0;points=[];" parent="10" vertex="1" connectable="0">
                    <mxGeometry x="-0.1461" y="-1" relative="1" as="geometry">
                        <mxPoint as="offset"/>
                    </mxGeometry>
                </mxCell>
                <mxCell id="19" value="" style="edgeStyle=none;html=1;" edge="1" parent="1" source="8" target="18">
                    <mxGeometry relative="1" as="geometry"/>
                </mxCell>
                <mxCell id="8" value="N &amp;lt; 100" style="rhombus;whiteSpace=wrap;html=1;" parent="1" vertex="1">
                    <mxGeometry x="253" y="320" width="298" height="80" as="geometry"/>
                </mxCell>
                <mxCell id="9" value="&lt;br&gt;Число двузначное" style="shape=document;whiteSpace=wrap;html=1;boundedLbl=1;" parent="1" vertex="1">
                    <mxGeometry x="640" y="320" width="170" height="80" as="geometry"/>
                </mxCell>
                <mxCell id="21" value="" style="edgeStyle=none;html=1;" edge="1" parent="1" source="18" target="20">
                    <mxGeometry relative="1" as="geometry"/>
                </mxCell>
                <mxCell id="18" value="N = N / 100&lt;br&gt;result = N mod 10" style="whiteSpace=wrap;html=1;" vertex="1" parent="1">
                    <mxGeometry x="230" y="450" width="348" height="60" as="geometry"/>
                </mxCell>
                <mxCell id="23" value="" style="edgeStyle=none;html=1;" edge="1" parent="1" source="20" target="22">
                    <mxGeometry relative="1" as="geometry"/>
                </mxCell>
                <mxCell id="20" value="result" style="shape=document;whiteSpace=wrap;html=1;boundedLbl=1;" vertex="1" parent="1">
                    <mxGeometry x="344" y="580" width="120" height="80" as="geometry"/>
                </mxCell>
                <mxCell id="22" value="end" style="ellipse;whiteSpace=wrap;html=1;" vertex="1" parent="1">
                    <mxGeometry x="344" y="700" width="120" height="60" as="geometry"/>
                </mxCell>
            </root>
        </mxGraphModel>
    </diagram>
</mxfile>